<?xml version="1.0" encoding="utf-8"?>
<!-- Generator: Adobe Illustrator 19.1.0, SVG Export Plug-In . SVG Version: 6.00 Build 0)  -->
<svg version="1.1" id="Layer_1" xmlns="http://www.w3.org/2000/svg" xmlns:xlink="http://www.w3.org/1999/xlink" x="0px" y="0px"
	 viewBox="-49 141 512 512" style="enable-background:new -49 141 512 512;" xml:space="preserve">
<style type="text/css">
	.st0{fill:#E5E5E5;}
</style>
<path class="st0" d="M463.3,382.7c-6.4-57.6-54.4-102.4-112-105.6c-38.4-3.2-73.6,12.8-96,38.4c-25.6,28.8-67.2,28.8-92.8,0
	c-25.6-25.6-57.6-41.6-96-38.4C5.7,283.5-42.3,328.3-48.7,382.7c-9.6,73.6,48,134.4,121.6,134.4c35.2,0,67.2-16,89.6-38.4
	c25.6-28.8,67.2-28.8,92.8,0c22.4,22.4,54.4,38.4,89.6,38.4C415.3,520.3,469.7,456.3,463.3,382.7z M130.5,408.3
	c-3.2,25.6-22.4,44.8-48,48c-41.6,6.4-76.8-25.6-70.4-67.2c3.2-25.6,25.6-44.8,48-48C101.7,334.7,136.9,366.7,130.5,408.3z
	 M402.5,408.3c-3.2,25.6-25.6,44.8-48,48c-41.6,6.4-76.8-25.6-70.4-67.2c3.2-25.6,25.6-44.8,48-48
	C373.7,334.7,408.9,366.7,402.5,408.3z"/>
</svg>
